<?xml version="1.0" encoding="utf-8"?>
<!-- Generator: Adobe Illustrator 25.4.1, SVG Export Plug-In . SVG Version: 6.00 Build 0)  -->
<svg version="1.1" id="Layer_1" xmlns="http://www.w3.org/2000/svg" xmlns:xlink="http://www.w3.org/1999/xlink" x="0px" y="0px"
	 viewBox="0 0 144 144" style="enable-background:new 0 0 144 144;" xml:space="preserve">
<style type="text/css">
	.st0{fill:none;}
	.st1{fill:#6B7D28;stroke:#6B7D28;stroke-width:0.388;stroke-linecap:round;stroke-linejoin:round;stroke-miterlimit:10;}
	.st2{fill:none;stroke:#313232;stroke-width:0.388;stroke-linecap:round;stroke-linejoin:round;stroke-miterlimit:10;}
	.st3{fill:#6B7D1F;stroke:#6B7D1F;stroke-width:0.388;stroke-linecap:round;stroke-linejoin:round;stroke-miterlimit:10;}
	.st4{fill:#FFFFFF;stroke:#313232;stroke-width:0.388;stroke-linecap:round;stroke-linejoin:round;stroke-miterlimit:10;}
	.st5{fill:#20847C;stroke:#20847C;stroke-width:0.388;stroke-linecap:round;stroke-linejoin:round;stroke-miterlimit:10;}
	.st6{fill:#1F3B7E;stroke:#1F3B7E;stroke-width:0.388;stroke-linecap:round;stroke-linejoin:round;stroke-miterlimit:10;}
	.st7{fill:#DEDEDE;stroke:#DEDEDE;stroke-width:0.388;stroke-linecap:round;stroke-linejoin:round;stroke-miterlimit:10;}
	.st8{fill:#F7D3CD;stroke:#313232;stroke-width:0.388;stroke-linecap:round;stroke-linejoin:round;stroke-miterlimit:10;}
	.st9{fill:#FBF9F1;stroke:#313232;stroke-width:0.388;stroke-linecap:round;stroke-linejoin:round;stroke-miterlimit:10;}
	.st10{fill:#A4CCC6;stroke:#A4CCC6;stroke-width:0.388;stroke-linecap:round;stroke-linejoin:round;stroke-miterlimit:10;}
	.st11{fill:none;stroke:#1D1D1B;stroke-width:0.3233;stroke-linecap:round;stroke-linejoin:round;stroke-miterlimit:10;}
	.st12{fill:#1D1D1B;}
	.st13{fill:#F65B0F;stroke:#313232;stroke-width:0.3879;stroke-miterlimit:10;}
	.st14{fill:#FFFFFF;stroke:#313232;stroke-width:0.3879;stroke-miterlimit:10;}
</style>
<rect x="0" class="st0" width="144" height="144"/>
<g>
	<g>
		<path class="st1" d="M29.1,111.2c0.4-2.5,0.7-5,0.7-7.5c0-2.8-0.4-5.6-1.6-8.2c-0.9-2.1-2.3-3.9-3.8-5.6c-0.1-0.2-0.3-0.4-0.3-0.6
			c0-0.2,0.2-0.4,0.4-0.4c0.2,0,0.5,0.1,0.7,0.2c0.6,0.4,1,0.9,1.4,1.5c1.3,1.9,2.1,4.1,2.9,6.2c-0.2-1-0.4-2.1-0.7-3.1
			c-0.3-1.1-0.6-2.3-0.3-3.5c0-0.1,0.1-0.3,0.2-0.4c0.2-0.1,0.4-0.1,0.6,0c0.2,0.1,0.3,0.3,0.4,0.5c0.3,0.7,0.5,1.5,0.6,2.2
			c0.4,2.6,0.3,5.3,0.1,7.9c0.3-1.1,0.6-2.2,0.9-3.3c0.1-0.5,0.3-1,0.5-1.5c0.1-0.2,0.3-0.5,0.5-0.4c0.2,0.1,0.3,0.3,0.3,0.5
			c0.1,1,0.1,2-0.1,3c-0.3,2.1-0.9,4.1-1.8,6.1c0.6-0.7,1-1.4,1.5-2.2c0.3-0.6,0.6-1.2,1.1-1.7c0.1-0.2,0.4-0.3,0.5-0.2
			c0.1,0,0.1,0.1,0.1,0.2c0.2,0.5,0,1.1-0.3,1.7c-1.2,3-3.1,5.6-4.6,8.4"/>
		<path class="st1" d="M25.6,107.1c-1-1-2.2-1.9-3.5-2.5c-1-0.5-2.3-0.7-3.3-0.2c-0.4,0.2-0.7,0.5-1,0.8c-1.2,1.3-1.9,3.1-1.8,4.9
			c0,0.3,0,0.6,0.1,0.9c0.2-0.1,0.2-0.3,0.2-0.4c0.3-1.5,0.6-3.1,1.5-4.3c0.2-0.3,0.4-0.6,0.7-0.7c0.1,0,0.2-0.1,0.3,0
			c0.1,0,0.1,0.2,0.1,0.2c0,0.1-0.1,0.2-0.1,0.3c-0.8,1.4-1.4,2.9-1.7,4.5c-0.1,0.4-0.2,0.7-0.2,1.1c0,0.1,0,0.2,0.1,0.3
			c0.1,0,0.2-0.1,0.2-0.2c0.2-0.3,0.3-0.7,0.5-1c0.8-1.9,1.8-3.8,3-5.5c-0.6,1.5-1.1,3.1-1.3,4.7c0,0.3-0.1,0.6,0.1,0.8
			c0,0.1,0.1,0.1,0.2,0.1c0,0,0.1,0,0.1-0.1c0.2-0.3,0.3-0.5,0.5-0.8c0.7-1.6,1.3-3.2,2.4-4.5c-0.5,1.1-0.9,2.4-1.2,3.6
			c-0.1,0.3-0.1,0.6,0,0.8c0,0.1,0,0.1,0.1,0.1c0.1,0,0.2-0.1,0.2-0.1c0.3-0.4,0.5-0.8,0.7-1.2c0.4-0.9,0.9-1.8,1.7-2.4
			c-0.2,0.5-0.4,0.9-0.6,1.4c-0.2,0.4-0.3,0.9-0.3,1.4c0,0.1,0.1,0.2,0.1,0.2c0,0,0.1,0,0.1-0.1c0.4-0.8,0.9-1.6,1.6-2.2
			c-0.3,0.6-0.5,1.3-0.6,2c0,0.1,0,0.2,0.1,0.3c0.2-0.2,0.3-0.5,0.5-0.8c0.2-0.5,0.5-0.9,0.9-1.3L25.6,107.1z"/>
		<path class="st1" d="M27.3,107.7c-0.1-0.4-0.3-0.9-0.4-1.3c-0.7-1.9-1.9-3.7-3.5-5c-2.7-2.2-6.4-2.9-9.8-2.4
			c-0.1,0.2-0.5-0.1-0.5-0.3c0.1-0.2,0.3-0.3,0.4-0.3c1.9-0.5,3.9-0.2,5.8,0.3c-0.9-0.6-1.7-1.3-2.3-2.2c-0.3-0.4-0.6-0.8-0.5-1.2
			c0.3-0.1,0.5,0.1,0.7,0.3c1.4,1,2.6,2.2,3.5,3.6c-0.2-0.2-0.2-0.4-0.3-0.7c-0.3-0.6-0.5-1.2-0.7-1.8c-0.2-0.4-0.3-0.9-0.3-1.3
			c0-0.1,0-0.3,0.2-0.3c0.1,0,0.2,0,0.2,0.1c0.3,0.3,0.5,0.6,0.7,1c0.8,1.4,1.5,2.8,2.1,4.2c-0.4-1.3-0.8-2.5-1-3.9
			c0-0.3-0.1-0.6,0-0.9c0-0.1,0.1-0.3,0.2-0.3c0.1,0,0.2,0.1,0.2,0.2c0.8,1.6,1.1,3.5,1.4,5.3c0-0.6,0-1.1,0-1.7
			c0-0.6-0.1-1.1-0.2-1.7c0-0.3,0-0.6-0.1-0.9c0-0.1,0-0.1,0-0.2c0-0.1,0.1-0.1,0.2-0.1c0.1,0,0.1,0.1,0.1,0.2
			c0,0.1,0.1,0.2,0.1,0.3c0.3,0.9,0.5,1.9,0.6,2.8c0.1,0.5,0.2,1.1,0.3,1.6c0.1,0.3,0.2,0.7,0.2,1c0.1-1,0.1-1.9,0-2.9
			c0-0.6-0.1-1.1,0-1.7c0-0.1,0-0.1,0.1-0.2c0.1-0.1,0.2,0,0.3,0c0.1,0.1,0.1,0.2,0.1,0.2c0.6,1.8,0.3,3.8,0.5,5.7
			c0.1-0.5,0.1-1,0.1-1.5c0-0.9,0-1.8,0.1-2.6c0-0.1,0.1-0.3,0.2-0.2c0.1,0,0.1,0.1,0.2,0.2c0.3,1,0.3,2,0.3,3.1
			c0,0.8-0.1,1.7-0.1,2.5c0.4-0.9,0.6-1.9,0.8-2.8c0-0.1,0-0.2,0.1-0.3c0.1-0.1,0.2-0.1,0.3-0.1c0.1,0,0.1,0.1,0.1,0.2
			c0.2,0.6,0.1,1.2,0,1.8c-0.1,1-0.3,2-0.4,2.9c0.3-0.5,0.6-1.1,0.7-1.7c0.1-0.2,0.1-0.5,0.3-0.7c0.2,0,0.2,0.2,0.2,0.4
			c0,0.4-0.1,0.7-0.2,1.1c-0.3,0.9-0.6,1.7-1,2.6L27.3,107.7z"/>
		<path class="st2" d="M13.5,99c3.4-0.5,7.1,0.2,9.8,2.4c1.6,1.3,2.8,3.1,3.5,5c0.7,1.8,1,3.7,1.1,5.6"/>
		<path class="st2" d="M16.1,110.1c-0.1-1.8,0.5-3.6,1.8-4.9c0.3-0.3,0.6-0.6,1-0.8c1-0.5,2.3-0.3,3.3,0.2c2.2,1,4,2.8,5.5,4.7"/>
		<path class="st2" d="M24.4,89.8c1.5,1.7,2.9,3.6,3.8,5.6c1.2,2.6,1.6,5.4,1.6,8.2c0,2.8-0.4,5.8-0.9,8.6"/>
	</g>
	<g>
		<path class="st3" d="M47.2,108.8c1.8-2.7,5.8-3.2,7.7-5.8c0.2-0.3,0.4-0.7,0.5-1.1c0-0.4-0.2-0.8-0.5-1c-0.2-0.1-0.5-0.1-0.8,0
			c-0.6,0.1-1.2,0.4-1.7,0.7c1.2-1.1,2.3-2.4,2.7-4c0.1-0.5,0.2-1.1-0.1-1.6c-0.4-0.5-1.1-0.7-1.7-0.5s-1.2,0.6-1.7,0.9
			c-0.3,0.3-0.7,0.5-1,0.8c0.1-0.4,0.2-0.8,0-1.2c-0.2-0.4-0.5-0.7-0.9-0.7c-0.6,0-0.9,0.3-1.3,0.7c1.2-1.5,1.7-3.5,1.5-5.4
			c-0.1-1-0.4-2-1.2-2.6c-0.2-0.1-0.3-0.2-0.5-0.2c-0.4-0.1-0.7,0.1-1,0.3s-0.3,0.5-0.5,0.8c0-0.4,0-0.8-0.2-1.1
			c-0.1-0.4-0.4-0.7-0.8-0.8c-0.4-0.1-0.8,0.1-1.1,0.3s-0.5,0.7-0.7,1c-0.7,1.7-0.9,3.8,0,5.4c-0.3,0.1-0.6,0.3-0.8,0.6
			c-0.2,0.3-0.2,0.6-0.3,0.9c-0.2-0.8-0.4-1.7-1-2.4c-0.2-0.3-0.6-0.6-1-0.6c-0.5,0-0.9,0.5-1,1.1s0,1.1,0,1.6
			c-0.1-0.5-0.3-1.1-0.7-1.5c-0.4-0.4-1.2-0.5-1.5,0c-0.3,0.4-0.1,1-0.1,1.5c-0.1,0.7-0.8,1.3-1,2c-0.2,0.9,0.3,1.8,1,2.4
			c0.7,0.6,1.5,1.1,2,1.8c-0.2-0.1-0.4-0.3-0.6-0.3c-0.3,0-0.6,0.3-0.6,0.6s0,0.6,0.1,0.9c0.2,0.5,0.5,1.1,0.8,1.5
			c-0.9-1.2-1.8-2.5-3.1-3.3c-0.2-0.1-0.4-0.2-0.6-0.3c-0.2,0-0.5,0-0.6,0.2c-0.1,0.2-0.2,0.4-0.1,0.6c0.1,0.8,0.6,1.5,1.2,2.1
			c0.7,0.7,1.6,1.3,2.4,1.9c-0.6-0.4-1.2-0.7-1.9-0.9c-0.5-0.2-1.1-0.3-1.6-0.1c-0.1,0-0.2,0.1-0.3,0.2c0,0.1,0,0.2,0,0.2
			c0.3,0.8,1.1,1.4,1.9,1.8c2,1,4.3,1.5,5.8,3C43.9,108.9,45.6,109,47.2,108.8z"/>
		<path class="st2" d="M39.4,93.7c0.5,1.2,0.7,2.5,0.7,3.7"/>
		<path class="st2" d="M42.4,93.8c0.7,1.8,1,3.7,1,5.6c0-0.7,0.2-1.3,0.4-2c0.1-0.3,0.3-0.7,0.7-0.7c0.3,0,0.4,0.3,0.6,0.5
			c0.8,1.5,0.6,3.3,0.4,4.9c0.4-0.5,0.8-1.1,1.5-1.1c0.7,0,1.2,0.7,1.3,1.4c0.1,0.7-0.2,1.3-0.4,2c-0.5,1.4-0.7,2.9-0.7,4.4"/>
		<path class="st2" d="M45.6,99.1c0.1-0.8,0.3-1.6,0.5-2.3c0.1-0.3,0.2-0.7,0.4-0.9c0.2-0.2,0.7-0.3,0.9-0.1
			c0.1,0.1,0.2,0.3,0.2,0.4c0.2,0.7,0,1.5-0.1,2.2c0.1-0.5,0.3-1.1,0.5-1.5s0.5-1,1-1.3"/>
		<path class="st2" d="M46.1,94.8c-0.4-0.6-0.7-1.3-0.9-2c-0.2-0.7-0.2-1.5,0.1-2.1c0.1-0.2,0.3-0.4,0.5-0.5
			c0.3-0.1,0.6,0.1,0.8,0.3c0.8,0.7,1.1,1.8,1.2,2.8c-0.2-1-0.1-2.1,0.3-3c0.3-0.5,0.7-1,1.3-1.1"/>
		<path class="st2" d="M53.5,101c-1.6,0.5-3,1.6-4,2.9c1-1.2,1.4-2.7,1.5-4.2"/>
		<path class="st2" d="M39.4,103.8c-0.6-0.5-1.2-1-1.4-1.7c-0.1-0.3-0.2-0.7,0.1-1c0.1-0.2,0.3-0.3,0.5-0.4c0.8-0.2,1.6,0.2,2.1,0.8
			c0.5,0.6,0.8,1.4,1.3,2c-0.2-0.5-0.4-1-0.5-1.5c0-0.3,0-0.6,0.1-0.8c0.2-0.3,0.6-0.3,0.9-0.2c0.3,0.1,0.6,0.4,0.8,0.6
			c1.1,1.3,1.6,3,2,4.6"/>
	</g>
	<path class="st4" d="M52.1,123.3c0.3-4.9,0.4-9.8,0.2-14.7c-5.1-0.2-10.2,0.4-15.1,1.9c0.6,4.1,1.5,8.6,2.1,12.7L52.1,123.3z"/>
	<g>
		<path class="st1" d="M84.6,119.2c0.8-1.6,1.5-3.1,2.3-4.7c0.1-0.3,0.3-0.7,0-0.9c-1,1.2-1.8,2.4-2.4,3.8c0.3-1,0.5-1.9,0.7-2.9
			c0.3-1.1,0.5-2.3,0.3-3.4c0-0.1-0.1-0.3-0.2-0.2c0,0,0,0.1-0.1,0.1c-0.7,1.8-1.3,3.6-1.7,5.5c0-2.7-0.1-5.4-0.5-8
			c0-0.2-0.1-0.4-0.3-0.3c-0.1,0-0.1,0.1-0.1,0.2c-0.1,2.4,0,5,0.2,7.4c-0.6-2.5-1.3-4.9-2.2-7.3c-0.1-0.3-0.2-0.5-0.5-0.6
			c-0.2,0.1-0.2,0.4-0.1,0.6c0.3,2.1,0.6,4.2,1.1,6.2c-0.6-1.4-1.2-2.7-1.9-4.1c-0.2-0.4-0.5-0.9-0.9-1.2c-0.1,0-0.1,0.2-0.1,0.4
			c0.5,2.1,1.2,4.2,2.1,6.2c-0.9-1.1-1.7-2.2-2.6-3.3c-0.2-0.3-0.5-0.6-0.8-0.6c0.9,2.5,2.1,4.8,3.7,6.9c0.3,0.1,0.6,0.1,1,0.1
			C82.8,118.9,83.7,119.1,84.6,119.2z"/>
		<polygon class="st5" points="85.1,124 79.6,124 79,117.3 85.7,117.3 		"/>
	</g>
	<g>
		<path class="st2" d="M104.5,102.1c-0.6-4.1,0.2-8.3,2.3-11.9"/>
		<path class="st1" d="M92.5,98c-0.1-0.2-0.2-0.5-0.2-0.7c0-0.3,0.2-0.5,0.4-0.5c0.1,0,0.3,0.1,0.4,0.1c0.5,0.3,0.9,0.7,1.2,1.2
			c0.5,0.7,1,1.4,1.4,2.1c0.1-0.1,0.3-0.3,0.4-0.4c0.6-0.8,0.6-2,0.2-2.9S95,95.2,94,94.9c0.8-0.4,1.1-1.6,0.8-2.4
			c-0.4-0.8-1.3-1.4-2.2-1.5c-0.9-0.1-1.9,0.2-2.7,0.5c-2.8,1.2-5.2,3.4-6.5,6.1c-0.3,0.5-0.5,1.1-0.4,1.7s0.6,1.1,1.2,1.1
			c1.3-0.1,2.7,0.2,4,0.5c2,0.3,4.1,0.7,6,0C93.7,100,93,99,92.5,98z"/>
		<path class="st2" d="M83.2,99.6c0.4-0.7,1.1-1.2,1.8-1.7c1.7-1.1,3.5-2.1,5.4-2.5c2-0.5,4.1-0.4,5.9,0.5c2,1,3.4,3.1,4.2,5.3
			c0.7,2.2,0.9,4.4,1.1,6.7"/>
		<path class="st1" d="M96.2,105c-0.1,0-0.2,0-0.3,0c-0.8-0.1-0.8-0.9-0.8-1.6c0.1-1.5,1.2-2.7,2.4-3.6c0.7-0.5,1.6-1,2.5-0.7
			c0.6-0.6,1.5-0.9,2.3-0.6c0.1,0.1,0.2,0.1,0.3,0.2c0.2,0.3,0.2,0.7,0,1c-0.2,0.3-0.5,0.5-0.8,0.7c-1.5,1-2.9,2-4,3.4
			c-0.2,0.3-0.5,0.6-0.8,0.9C96.8,104.9,96.5,105,96.2,105z"/>
		<path class="st1" d="M121.7,100.9c-0.1-2.1-1.2-4.2-2.8-5.6c-0.1-0.1-0.2-0.2-0.3-0.3c0,0.4-0.1,0.9-0.2,1.3
			c-0.1,0.3-0.2,0.7-0.5,0.9c-0.4,0.2-0.9,0-1.1-0.3c-0.2-0.3-0.3-0.8-0.2-1.2c0.1-0.4,0.2-0.8,0.3-1.2c0-0.2,0-0.3,0.1-0.5
			c-0.5-0.3-1.1-0.6-1.6-0.8c0,0.4,0,0.8,0,1.3c-0.1,0.6-0.3,1.3-0.7,1.7c-0.1,0.1-0.2,0.2-0.3,0.2c-0.2,0.1-0.5,0-0.7-0.2
			c-0.2-0.2-0.3-0.4-0.3-0.7c-0.1-0.5,0.1-1,0.2-1.5c0.1-0.5,0.2-0.9,0.3-1.4c-0.2-0.1-0.4-0.1-0.6-0.2c-0.7-0.2-1.5-0.3-2.3-0.3
			c-0.8,0.1-1.5,0.4-2,1c-0.6,0.8-0.6,1.9-0.3,2.8c0.4,0.9,1.1,1.7,1.8,2.4c-0.5,0.6-0.8,1.5-0.4,2.1c0.1,0.2,0.4,0.4,0.6,0.6
			c1.5,1,3.4,0.9,5.1,1.3c0-0.1-0.1-0.2-0.1-0.3c-0.3-0.6-0.6-1.3-0.9-1.9c-0.1-0.3-0.2-0.6-0.1-0.9c0.1-0.2,0.4-0.3,0.7-0.3
			c0.2,0,0.5,0.2,0.7,0.3c0.4,0.4,0.7,0.9,1,1.4c0.3,0.7,0.6,1.5,0.7,2.3c0.4,0.2,0.8,0.3,1.2,0.5c0.3,0.1,0.6,0.3,0.9,0.3
			c0.6,0,1.2-0.4,1.5-1C121.6,102.2,121.7,101.5,121.7,100.9z"/>
		<path class="st2" d="M96.5,103.1c0.4-1,1-1.9,1.8-2.8c0.5-0.6,1-1.2,1.7-1.6c0.7-0.4,1.5-0.6,2.3-0.3c0.8,0.2,1.3,0.9,1.7,1.6
			c0.9,1.7,0.7,3.7,0.6,5.6c-0.1,0.7-0.1,1.5-0.2,2.2c0.1-2.6,1.1-5.1,2.7-7.3c0.9-1.1,1.9-2.1,3.3-2.6c0.5-0.2,0.9-0.3,1.4-0.3
			c3.6-0.5,7.5,1,9.9,3.8"/>
		<path class="st1" d="M106.8,106.4c-0.6,0.2-1.2,0-1.7-0.2c-0.7-0.3-1.3-0.6-1.8-1.2s-0.8-1.3-0.6-2c0.2-0.7,0.9-1.3,1.6-1.1
			c0.2-0.5,0.9-0.8,1.4-0.7s1,0.6,1.2,1.1c0.2,0.5,0.3,1.1,0.4,1.6c0,0.4,0,0.7,0,1.1C107.3,105.5,107.2,106.2,106.8,106.4z"/>
		<path class="st2" d="M104.1,101.9c0.7,1.5,1.6,2.9,2.7,4.2"/>
		<path class="st1" d="M114.4,88.6c-0.2-0.6-0.7-1.1-1.3-1.4c-0.6-0.3-1.2-0.5-1.9-0.6c-0.5-0.1-1-0.1-1.5-0.2
			c-0.6,0-0.5-0.1-0.6-0.6c-0.1-0.8-0.4-1.6-1-2.2c-0.3-0.3-0.6-0.5-1-0.7c-1-0.5-2-0.8-3.1-0.7c-1.1,0.1-2.1,0.6-2.8,1.5
			c-0.4,0.5-0.6,1.1-0.8,1.7c0,0,0,0,0,0.1c1.2-0.2,2.4-0.2,3.5,0.3c0.5,0.2,1,0.7,0.9,1.2c-0.1,0.3-0.3,0.5-0.6,0.7
			c-0.3,0.1-0.6,0.1-0.9,0.1c-0.8-0.1-1.5-0.3-2.3-0.5c-0.3-0.1-0.6-0.1-0.9-0.1c-0.4,1.7-0.8,3.4-1.6,4.9c-0.3,0.6-0.7,1.2-0.4,1.8
			c0.1,0.3,0.4,0.5,0.6,0.6c1,0.6,2.3,0.3,3.4-0.1c1-0.4,2-0.8,3.1-1.2c-0.2-0.3-0.4-0.6-0.5-0.9c-0.1-0.3-0.2-0.7-0.1-0.9
			c0.1-0.2,0.4-0.3,0.6-0.3c0.2,0,0.5,0.1,0.7,0.2c0.8,0.3,1.5,0.8,2,1.5c0.7,0,1.4,0,2.1,0c-0.1-0.2-0.3-0.3-0.4-0.5
			c-0.4-0.4-0.9-0.7-1.3-1.1c-0.2-0.2-0.4-0.4-0.4-0.7c0-0.2,0.2-0.3,0.4-0.4c0.2-0.1,0.4,0,0.6,0c0.7,0.1,1.3,0.5,1.9,0.9
			c0.6,0.4,1.1,0.9,1.6,1.4c0.5-0.1,0.9-0.4,1.3-0.6C114.2,90.9,114.8,89.6,114.4,88.6z"/>
		<path class="st2" d="M98.1,94c2.3-1.8,5.1-4.2,7.5-5.9c0.4-0.3,0.9-0.6,1.3-0.9c0.7-0.4,1.5-0.8,2.3-1.1"/>
		<path class="st2" d="M110.9,91.8c0.9-0.1,1.7,0,2.6,0.2"/>
		<path class="st2" d="M108.9,87.9c1.6,0.2,3.2,0.7,4.7,1.4"/>
		<path class="st2" d="M91.5,100.3c-1.1-1.3-1.9-2.8-2.2-4.5"/>
		<path class="st4" d="M108.8,122.5h-9.3c-2-4.4-3.2-9.2-3.7-14c4.5-0.7,9.2-0.9,13.7-0.4C110.1,112.9,109.6,117.8,108.8,122.5z"/>
	</g>
	<g>
		<polygon class="st2" points="127.3,124.3 121.5,124.3 120.2,116.1 128.5,116.1 		"/>
		<path class="st1" d="M125.1,113.7c-1.3-0.7-3,0.1-4.3-0.7c-0.1-0.1-0.3-0.2-0.4-0.3c-0.1-0.1-0.1-0.3,0-0.5
			c0.1-0.1,0.2-0.2,0.4-0.2c0.6-0.2,1.3-0.2,1.9,0C123.7,112.4,124.5,112.9,125.1,113.7z"/>
		<path class="st1" d="M126.3,110.4c-0.6-1.3-2.1-2-2.9-3.2c-0.2-0.2-0.3-0.5-0.3-0.8c0-0.3,0.1-0.6,0.4-0.7c0.3-0.1,0.6,0,0.8,0.1
			c0.3,0.2,0.6,0.5,0.7,0.9C125.5,107.9,126,109.2,126.3,110.4z"/>
		<path class="st1" d="M125.7,112.4c0.1-0.3,0.3-0.5,0.6-0.8c0.9-0.9,2.1-1.4,3.3-1.3c0.3,0,0.6,0,0.8,0.2s0.5,0.4,0.5,0.6
			c0,0.1,0,0.2-0.1,0.3c-0.1,0.1-0.1,0.1-0.2,0.1c-0.5,0.2-1,0.1-1.5,0.1c-0.5,0-1,0-1.4,0.2C127.1,112.2,126.4,112.1,125.7,112.4z"
			/>
		<path class="st1" d="M126,111.2c0.4-1,1.1-1.8,1.9-2.5c0.4-0.3,0.8-0.6,1.2-0.8c0.3-0.1,0.6-0.2,0.9-0.1c0.3,0.1,0.5,0.4,0.5,0.7
			c-0.1,0.3-0.4,0.5-0.7,0.6c-0.3,0.1-0.7,0.1-0.9,0.4c-0.2,0.2-0.3,0.4-0.5,0.6c-0.4,0.4-0.9,0.5-1.5,0.7c-0.1,0-0.3,0.1-0.4,0.2
			C126.3,111.1,126.2,111,126,111.2z"/>
		<path class="st2" d="M124.7,116.2c0.1-1.5,0.5-2.9,1.1-4.3c0.5-1.4,1.1-2.8,1.7-4.1"/>
		<path class="st2" d="M123.6,109.8c0.5,1.1,1,2.1,1.7,3.1"/>
		<path class="st2" d="M126.5,111.1c0.6-0.5,1.3-0.9,2.1-1"/>
	</g>
	<g>
		<g>
			<path class="st1" d="M111.3,112.4c-0.5-0.7-1-1.4-1.4-2.1c-0.8-1.2-1.5-2.4-1.9-3.8c-0.1-0.3-0.1-0.5-0.1-0.8
				c0-0.2,0.1-0.4,0.2-0.5c0.1-0.2,0.2-0.3,0.4-0.4c0.3-0.1,0.6,0,0.8,0.2c0.3,0.3,0.4,0.6,0.6,0.9c-0.2-0.6-0.2-1.3,0-1.9
				c0.1-0.2,0.2-0.5,0.4-0.6c0.4-0.3,0.9-0.1,1.2,0.2s0.4,0.8,0.5,1.2c0.1,0.7,0.1,1.5,0,2.2c0,1.1-0.1,2.3-0.1,3.4
				c0,0.7-0.1,1.2-0.2,1.9c0,0.1,0,0.1-0.1,0.2c0,0-0.1,0-0.2,0S111.4,112.5,111.3,112.4z"/>
			<path class="st1" d="M110.9,112.2c-1.1-0.4-2.1-1-2.7-1.9c-0.2-0.3-0.3-0.6-0.3-0.9c0-0.3,0.2-0.6,0.5-0.7
				c0.3-0.1,0.5,0.1,0.8,0.2c0.3,0.2,0.6,0.5,0.9,0.8c-0.3-0.3-0.5-0.8-0.6-1.2c-0.1-0.4-0.1-0.9,0.3-1.2c0.3-0.2,0.8,0,1.1,0.3
				c0.3,0.4,0.5,0.8,0.7,1.3c0.4,0.8,0.5,1.5,0.4,2.4c0,0.3-0.1,0.6-0.3,0.8C111.5,112.3,111.1,112.5,110.9,112.2z"/>
			<path class="st1" d="M111.8,112.3c-0.1-1.8-0.2-3.7,0.3-5.5c0.1-0.5,0.4-1.1,0.8-1.4c0.2-0.2,0.5-0.3,0.8-0.1
				c0.2,0.1,0.2,0.4,0.2,0.6c0,0.3-0.1,0.6-0.2,0.9c0.2-0.4,0.4-0.8,0.7-1.1c0.2-0.2,0.5-0.4,0.8-0.4c0.2,0,0.4,0.1,0.5,0.3
				s0.2,0.4,0.2,0.6c0.1,0.7-0.3,1.4-0.7,2c0.2-0.1,0.4-0.2,0.6-0.3c0.2-0.1,0.5-0.1,0.7-0.1c0.2,0.1,0.4,0.3,0.5,0.5
				c0.1,0.3,0.1,0.6,0,0.9c-0.1,0.3-0.4,0.6-0.7,0.8c-0.8,0.6-1.6,1-2.4,1.4C113.1,111.6,112.3,111.8,111.8,112.3z"/>
			<path class="st2" d="M108.4,108.7c0.3-0.1,0.7,0,0.9,0.2c0.3,0.2,0.5,0.4,0.7,0.7c-0.3-0.4-0.5-0.8-0.6-1.3
				c0-0.2-0.1-0.4-0.1-0.6c0-0.2,0.1-0.4,0.3-0.5c0.2-0.1,0.5-0.1,0.7,0c0.2,0.1,0.4,0.3,0.5,0.5c1.1,1.3,1.4,3.2,0.8,4.8"/>
			<path class="st2" d="M111.6,108.9c0-1,0.2-2,0.6-2.9"/>
			<path class="st2" d="M114,105.4c0.1,0.3,0.2,0.6,0.2,0.8c0,0.3-0.1,0.6-0.1,0.9"/>
		</g>
		<path class="st6" d="M116.9,112.2c-0.2,4.1-0.6,7.8-1.3,11.8h-8.4c-0.6-3.9-1-7.8-1-11.8L116.9,112.2z"/>
	</g>
	<path class="st7" d="M74.9,31.5c0.8,0.1,1.7,0.3,2.4,0.7c0.7,0.4,1.4,1.1,1.7,1.8c0.3,0.7,0.3,1.7-0.3,2.2c0.8,0.1,1.4,0.7,1.7,1.5
		c0.3,0.7,0.2,1.6,0,2.3c-0.1,0.3-0.3,0.7-0.5,0.9c-0.3,0.3-0.6,0.5-1,0.7c-0.5,0.2-1,0.3-1.5,0.3c-0.7,0-1.5-0.2-2.1-0.6
		c-0.9-0.6-1.4-1.5-1.8-2.5c-0.5-1.2-0.7-2.6-0.5-3.9S73.8,32.3,74.9,31.5z"/>
	<path class="st7" d="M71.2,35.2c0,1.4-0.3,2.7-0.9,3.9c-0.6,1.2-1.7,2.2-2.9,2.6C67,41.9,66.7,42,66.4,42c-0.8,0-1.7-0.5-2.1-1.2
		c-0.4-0.7-0.5-1.6-0.3-2.4c0.2-0.8,0.8-1.5,1.4-2c-0.3,0.3-0.6,0.6-0.9,0.8c-0.3,0.1-0.6,0.3-0.9,0.1c-0.4-0.2-0.5-0.6-0.5-1.1
		c0.1-0.7,0.5-1.3,0.9-1.8c1-1.2,2.3-2.2,3.7-2.8c0.9,0.1,1.5,0.7,2.1,1.4S70.8,34.5,71.2,35.2z"/>
	<path class="st8" d="M74.9,31.4c0,0.4,0,0.8,0,1.2c0,1.7,0,3.4,0.1,5c0,0.3,0,0.5,0,0.8c-0.1,0.2-0.2,0.4-0.3,0.6
		c-1.2,1.5-3.2,2.1-5,1.6c-0.6-0.2-1.2-0.6-1.3-1.2c-0.4-2-0.6-4-0.6-6.1c0-0.6,0-1.1,0-1.7"/>
	<path class="st8" d="M88.6,100.3c0.5,4.6,0.8,9.2,1,13.8c0,0.4,0,0.8-0.1,1.1c-0.3,0.8-1.3,1-2.1,1.1c-0.6,0.1-1.3,0.2-1.9,0.3
		c-0.5,0.1-0.9,0.2-1.4,0.1c-0.5-0.1-1-0.3-1.2-0.6c-0.2-0.3-0.3-0.6-0.4-0.9c-0.9-4.1-1.9-8.1-2.8-12.2c2.8-1.1,5.8-2.1,8.7-2.9
		c0.1,0,0.2,0,0.2,0C88.7,100.2,88.7,100.3,88.6,100.3z"/>
	<path class="st4" d="M81,112.7c3.4-0.3,6.9-0.6,10.3-1c-0.5,0.8-0.8,1.8-0.9,2.8c0,1,0.4,2,1.2,2.5c0.3,0.2,0.7,0.2,1,0.3
		c1.2,0.2,2.4,0,3.7,0c1.2,0,2.5,0.2,3.5,0.9c0.9,0.7,1,1.8,1.4,2.9l-9.9,1.8l-2.8-1.5l0.2,1.9l-5.9,1C82,120.5,81.4,116.6,81,112.7
		z"/>
	<line class="st2" x1="100.6" y1="119.3" x2="82.4" y2="122"/>
	<path class="st2" d="M87,112.2c0.2,1.4,0.3,2.8,0.3,4.2c0,0.4,0,0.8-0.2,1.2c-0.2,0.4-0.5,0.7-0.9,0.8c-0.6,0.1-1.1-0.5-1.4-1
		c-0.8-1.5-1.3-3.1-1.6-4.8"/>
	<path class="st8" d="M59.4,101.7c0.3,4.6,0.8,9.2,1.4,13.8c0.1,0.4,0.1,0.8,0.3,1.1c0.5,0.7,1.4,0.7,2.3,0.7c0.6,0,1.3,0,1.9,0
		c0.5,0,1,0,1.4-0.1c0.5-0.1,0.9-0.4,1.1-0.9c0.1-0.3,0.2-0.7,0.2-1c0.2-4.2,0.4-8.3,0.6-12.5c-3-0.6-6.1-1.1-9.1-1.3
		c-0.1,0-0.2,0-0.2,0.1C59.3,101.6,59.3,101.7,59.4,101.7z"/>
	<path class="st8" d="M89.5,72.8c0.4,1.8,0.9,3.6,1.3,5.3c0.1,0.5,0.2,1,0.5,1.4c0.2,0.5,0.6,0.9,1,1.1s1.1,0.2,1.4-0.2
		c0.4-0.4,0.5-1.1,0.5-1.6c0-1.4-0.2-2.9-0.5-4.2c0.9,2.6,1.8,5.2,2.7,7.8c0.1,0.4,0.3,0.8,0.6,1.1c0.4,0.5,1.2,0.6,1.8,0.3
		s0.9-1,0.8-1.6c0.2,0.1,0.4,0,0.5-0.1c0.4-0.2,0.7-0.6,0.9-1c0.2-0.4,0.2-0.9,0.3-1.3c0.5,0,0.9-0.4,1.2-0.8
		c0.2-0.4,0.3-0.9,0.3-1.3c0.1-2.2-0.5-4.3-1.2-6.4c-0.3-1-0.6-1.9-1-2.9C99.9,68.9,89.8,72.6,89.5,72.8z"/>
	<path class="st9" d="M101.2,69.1c-3.1,2.4-7.9,4.1-11.7,4.9c-2.2-6.7-4.5-13.2-6.9-19.7c-0.1,2.9-1.7,6.3-4.2,7.9
		c-2.5,1.5-5.8,2.2-8.7,2.2c-2.2,0-4.6-0.3-6.6-1.4c-2.3-1.2-3.8-3.3-4.8-5.6c-0.4-1-1.1-3.2-1.2-3.1c-1.4,1.4-2.9,2.7-4.1,4.2
		c1.4,0.4,2.9,0.8,4.2,1.3c-1.7,3.1-3.4,6.7-4.3,10c-2-0.5-4-1.1-5.9-1.8c-1.4-0.5-2.7-1.1-3.9-2c-1.2-0.9-2.1-2.1-2.5-3.5
		c-0.5-1.9,0.1-3.9,1-5.6c1.9-3.8,4.9-6.9,7.9-9.8c1.9-1.8,3.9-3.5,6.2-4.8c2.3-1.3,4.9-2.1,7.5-1.9c2.8,0.2,5.4,1.5,8.1,1.4
		c1.8-0.1,3.7-0.7,5.4-1.3c1.4-0.5,2.7-1,4.2-1c1.2,0,2.3,0.5,3.4,1.1c4,2.2,6.4,6.4,8.5,10.4C95.8,56.4,98.8,63.3,101.2,69.1z"/>
	<path class="st2" d="M70,51c0.1-2,0.2-2.9,0.4-4.8"/>
	<path class="st10" d="M60,62.4c1.8-1.1,2.8-3.2,3.3-5.3c0.5-2,0.7-4.2,0.6-6.3C68.1,51,72.2,51,76.4,51c0.7,2.3,1.4,4.5,2.5,6.6
		s2.6,4,4.5,5.4c1.4,6.9,2.8,13.8,4.3,20.6c1.7,7.5,3.4,15.1,6.2,22.3c-5.3,0.7-10.9,1.6-16.2,2.2c-2-9.7-3.6-19.4-5.6-29.1
		c0.2,9.8,0.4,19.5,1.7,29.2c-5.4,0.5-11.2,0.6-16.6-0.3C57.2,92.8,58.1,77.4,60,62.4z"/>
	<path class="st4" d="M77.6,108.1c-2-9.7-3.6-19.4-5.6-29.1"/>
	<path class="st10" d="M63.8,40.4c-0.3,3.1-0.4,6.2-0.6,9.2c1.1,0.1,2.3,0.1,3.4,0c0.1-2.9,0.3-5.7,0.4-8.6
		C66,40.8,64.9,40.5,63.8,40.4z"/>
	<path class="st10" d="M74.8,41c0,2.9-0.2,5.9-1.1,8.7c1.3,0.1,2.5,0.1,3.8,0c0.8-3.2,0.8-6.5,0.7-9.8c-0.5,0.2-0.9,0.3-1.4,0.5
		C76.2,40.6,75.5,40.8,74.8,41z"/>
	<path class="st2" d="M46.5,56.7c2.3,0.5,4.4,1,6.6,1.8"/>
	<path class="st2" d="M48.3,68.4c0.2-2.6,0.8-5.2,1.8-7.6c0.4-1,0.8-1.9,1.4-2.7"/>
	<path class="st2" d="M87.8,68.9c3.8-0.9,8-2.6,11.3-4.6"/>
	<path class="st11" d="M76.3,101.6c5.1-0.4,10.2-1.1,15.2-2.4"/>
	<path class="st11" d="M57.3,101.9c3,0.4,6.1,0.4,9.2,0.3c2.2-0.1,4.4-0.2,6.6-0.3"/>
	<path class="st4" d="M69,112.6c-3.4,0.3-6.9,0.6-10.3,0.8c0.6,0.7,1.1,1.6,1.3,2.6c0.2,0.9,0,2-0.8,2.6c-0.3,0.2-0.6,0.4-0.9,0.5
		c-1.2,0.4-2.4,0.4-3.6,0.6c-1.2,0.2-2.5,0.6-3.3,1.5c-0.7,0.9-0.7,2-0.9,3.1h10.1l2.5-1.9l0.2,1.9h6
		C69.4,120.4,69.3,116.5,69,112.6z"/>
	<line class="st2" x1="50.9" y1="122.4" x2="69.3" y2="122"/>
	<path class="st2" d="M63,113.1c0,1.4,0.2,2.8,0.5,4.2c0.1,0.4,0.2,0.8,0.4,1.2c0.2,0.3,0.6,0.6,1,0.6c0.6,0,1-0.7,1.2-1.3
		c0.6-1.6,0.7-3.3,0.8-5"/>
	<path class="st2" d="M99.6,82.2c0-1.3-0.4-2.5-0.8-3.7c-0.3-1.1-0.7-2.2-1-3.3"/>
	<path class="st2" d="M101.3,79.8c-0.2-1.8-0.6-3.6-1.2-5.4"/>
	<path class="st2" d="M65.3,55.1c0,1.6,0,3.2,0,4.8c0,0.8,0,1.5,0.5,2.2c0.4,0.5,1,0.9,1.6,1c0.6,0.2,4.9,0.2,6.3,0.1
		c0.6,0,1.2,0,1.8-0.3c0.4-0.2,0.7-0.7,0.9-1.1c0.2-0.5,0.2-1,0.2-1.5c0-0.6,0.1-1.2,0.1-1.7c0-1.2,0-2.4-0.1-3.5
		c0-0.2-3.7-0.1-4-0.1c-1.8,0-3.5,0-5.3,0.1C66.6,55,65.9,55.1,65.3,55.1z"/>
	<circle class="st12" cx="69.9" cy="33.6" r="0.2"/>
	<circle class="st12" cx="72.7" cy="33.4" r="0.2"/>
	<circle class="st4" cx="65.4" cy="50.9" r="0.6"/>
	<circle class="st4" cx="75.2" cy="50.9" r="0.6"/>
	<path class="st8" d="M62.6,62.5c-0.7-0.5-1.4-0.9-2.1-1.3c-1.1-0.6-2.3-1-3.5-1.2c-1.6,2.9-3.1,6.1-4,9.2c2.3,1,4.7,1.9,7.1,2.7
		c0.5,0.2,1.1,0.4,1.7,0.3c0.2,0,0.4-0.1,0.6-0.2c0.4-0.3,0.7-0.8,0.7-1.2c0-0.5-0.2-1-0.5-1.3c0.4,0.2,0.8,0.3,1.3,0.3
		c0.5,0,0.9-0.2,1.2-0.6c0.2-0.3,0.2-0.7,0.1-1.1c-0.1-0.4-0.3-0.7-0.5-1c0.5-0.1,0.9-0.6,0.9-1.1c0-0.4-0.1-0.8-0.3-1.1
		C64.6,63.8,63.6,63.2,62.6,62.5z"/>
	<path class="st2" d="M57.5,67.3c1.7,0.8,3.4,1.3,5,2.3"/>
	<path class="st2" d="M58.5,64.2c2.1,0.7,4.1,1.6,6,2.8"/>
	<path class="st2" d="M79.1,35.4C79,36,78.6,36.5,78,36.7c-0.2,0.1-0.5,0.1-0.7-0.1c-0.1-0.1-0.2-0.2-0.2-0.3c0-0.1,0.1-0.2,0.1-0.2
		s0.2-0.1,0.2-0.1c0.7-0.1,1.5,0.1,2,0.5"/>
	<g>
		<path class="st11" d="M66.6,59.5c0-0.6,0-1.2,0-1.9c0.1-0.1,0.3-0.1,0.5-0.1s0.3,0.1,0.4,0.2c0.1,0.1,0.1,0.3,0.1,0.4
			c0,0.1-0.1,0.2-0.1,0.2c-0.1,0-0.1,0.1-0.2,0.1c-0.2,0.1-0.3,0.1-0.5,0"/>
		<path class="st11" d="M68.3,59.4c0.1-0.5,0.2-1.1,0.3-1.6c0-0.1,0.1-0.2,0.2-0.3c0.1,0,0.1,0,0.2,0.1s0.1,0.1,0.1,0.2
			c0.2,0.5,0.4,1,0.6,1.5"/>
		<path class="st11" d="M70.1,57.5c0.5,0,1,0,1.5,0"/>
		<path class="st11" d="M73.4,59c-0.1,0.1-0.2,0.2-0.4,0.3c-0.2,0-0.3,0-0.4-0.1c-0.2-0.1-0.2-0.4-0.2-0.6c0-0.2-0.1-0.4,0-0.6
			c0.1-0.2,0.2-0.4,0.4-0.5s0.5,0,0.6,0.2"/>
		<path class="st11" d="M74.2,57.5c0.1,0.6,0.1,1.2,0.1,1.8"/>
		<path class="st11" d="M75.3,57.5c0,0.6,0.1,1.1,0.1,1.8"/>
		<path class="st11" d="M74.4,58.4c0.2,0,0.5,0,0.7,0c0.1,0,0.2,0,0.3,0"/>
		<path class="st11" d="M70.8,57.6c0,0.6,0.1,1.2,0.1,1.8"/>
		<path class="st11" d="M68.6,58.7c0.3,0,0.5-0.1,0.8-0.1"/>
	</g>
	<path class="st7" d="M76.1,38.6C76.1,38.6,76.1,38.6,76.1,38.6c-0.1-0.2-0.1-0.5-0.2-0.7c-0.1-0.3-0.3-0.6-0.4-0.9
		c-0.3-0.6-0.8-1.1-1.3-1.5c-0.1-0.1-0.1-0.1-0.2-0.2c-0.4-0.3-0.8-0.5-1.2-0.5c-0.4,0-0.9,0-1.2,0.4c-0.2-0.3-0.6-0.3-1-0.2
		c-1.3,0.4-2.5,1.2-3.1,2.5c-0.2,0.4-0.4,0.8-0.3,1.2c0.2,0.5,0.6,0.5,0.8,0.4c-0.6,0.6-0.9,1.5-1,2.3c-0.1,0.6-0.1,1.2,0.2,1.7
		c0.3,0.5,0.9,0.9,1.4,0.8c0.5-0.1,0.9-0.7,1.1-1.2c0.1-0.2,0.2-0.4,0.3-0.6c-0.3,0.5-0.5,1.2-0.5,1.8c0,0.5,0,0.9,0.3,1.3
		c0.2,0.4,0.7,0.7,1.1,0.7c0.4,0,0.7-0.2,0.9-0.4c0.2-0.3,0.4-0.6,0.5-0.9c0.2-0.6,0.3-1.2,0.2-1.9c0.1,0.5,0.2,0.9,0.5,1.3
		c0.3,0.4,0.8,0.6,1.2,0.5c0.5-0.1,0.8-0.5,0.9-0.9s0.1-0.9,0.1-1.4c-0.1-1.1-0.3-2.2-0.7-3.2c0.3,0.6,1.3,0.8,1.5,0
		C76.2,38.9,76.1,38.7,76.1,38.6z"/>
	<path class="st2" d="M75.1,41.1c-0.1-0.7-0.3-1.4-0.5-2c0.3,0.6,1.3,0.8,1.5,0c0-0.2,0-0.3,0-0.5c0,0,0,0,0,0
		c-0.1-0.2-0.1-0.4-0.2-0.6c-0.1-0.3-0.3-0.6-0.4-0.9c-0.3-0.6-0.8-1.1-1.3-1.5"/>
	<path class="st2" d="M68.3,36.2c-0.4,0.3-0.7,0.8-0.9,1.2c-0.2,0.4-0.4,0.8-0.3,1.2c0.2,0.5,0.6,0.5,0.8,0.4
		c-0.6,0.6-0.9,1.5-1,2.3"/>
	<path class="st2" d="M68.9,36.6c0.4,0.3,0.9,0.5,1.5,0.4c0.5,0,1-0.3,1.3-0.8c0.2,0.4,0.7,0.6,1.1,0.6c0.5,0,0.9-0.2,1.3-0.5"/>
	<path class="st8" d="M71,33.5c-0.2,0.9-0.3,1.9-0.5,2.8c0,0.2-0.1,0.4-0.1,0.6c0,0.2,0,0.4,0.1,0.5c0.1,0.2,0.2,0.3,0.4,0.2
		c0.1,0,0.2-0.2,0.3-0.3c0.2-0.3,0.3-0.7,0.4-1c0.2-0.7,0.4-1.5,0.5-2.2"/>
	<path class="st2" d="M69.3,42.7c-0.2,0.7-0.3,1.4-0.1,2c0.2,0.7,0.7,1.3,1.4,1.4c0.5,0.1,1.1-0.2,1.4-0.7"/>
	<path class="st2" d="M72.5,44.4c0.1-0.3,0.2-0.7,0.2-1c0-0.3,0-0.6-0.2-0.9c0-0.1-0.1-0.1-0.2-0.1c-0.1,0-0.2,0-0.2,0.1
		c0,0.1,0,0.2,0,0.2c0.1,0.6,0.4,1.2,1,1.5"/>
	<polygon class="st5" points="33.4,123.3 24.8,123.3 22.6,112 35.7,112 	"/>
	<path class="st4" d="M30.8,124l6,0c0.4-1.8,0.6-3.8,0.4-5.6c-2.3-0.4-4.5-0.4-6.8,0C30.3,120.2,30.4,122.1,30.8,124"/>
	<g>
		<path class="st1" d="M31.5,115.5c-0.4-0.6-0.7-1.3-0.7-2c0.1-0.1,1.4,0.3,1.8,0.8c0.4,0.5,0.6,1.1,0.6,1.8
			C32.5,116.2,31.8,116,31.5,115.5z"/>
		<path class="st2" d="M33.1,114.5c0,1.2,0.2,2.4,0.7,3.4"/>
		<path class="st2" d="M31.6,114.6c0.5,0.6,1,1.1,1.6,1.6"/>
	</g>
	<path class="st1" d="M44.8,115.4c-1.3-0.3-2.7-0.9-3.5-2.1c-0.2-0.3-0.4-0.8-0.2-1.1c0.2-0.2,0.4-0.3,0.7-0.3
		c0.3,0,0.5,0.2,0.7,0.3c0.3,0.2,0.6,0.5,0.9,0.8C44.1,113.7,44.4,114.5,44.8,115.4z"/>
	<path class="st1" d="M45,115.5c0-1.4,0.5-2.8,1.4-3.9c0.2-0.2,0.4-0.4,0.6-0.5c0.3-0.1,0.6-0.1,0.8,0.1c0.6,0.6-0.6,2.2-1,2.6
		c-0.5,0.5-1,1-1.5,1.5c-0.1,0.1-0.2,0.2-0.3,0.4"/>
	<g>
		<path class="st2" d="M45.3,117.3c-0.3-1.7-0.6-3.5-0.8-5.2"/>
		<polygon class="st10" points="47.5,124.6 42.6,124.6 41.3,117.3 48.8,117.3 		"/>
	</g>
	<g>
		<path class="st13" d="M76.8,30c0,0-3.5-7.6-9.2-8.2c-5.7-0.6,5.2,3.4-2.8,9.5C63.7,32.1,77.8,31.9,76.8,30z"/>
		<path class="st14" d="M71.4,30.3c0,0-1.2-1-2.5,0.3c0,0-1.9-1.3-3,0.3c0,0-2.6-1-1.6,1.7c0,0,1.2,1.5,2.4-0.3c0,0,1.6,1.2,2.7-0.3
			c0,0,1.9,1.4,2.6-0.1c0,0,2,1.3,2.6-0.5c0,0,2.3,1.4,3-0.9c0,0,0.1-1.3-2.1-0.8c0,0-1.4-1.1-2,0.5C73.4,30.2,72.2,29.3,71.4,30.3z
			"/>
		<path class="st14" d="M66.1,20.3c0,0-2.3-2-2.2,0.2c0,0-2.2,1.3,0.2,1.9c0,0,0.6,2.6,2-0.2C66,22.2,69.5,20.3,66.1,20.3z"/>
	</g>
</g>
</svg>
