<?xml version="1.0" encoding="utf-8"?>
<!-- Generator: Adobe Illustrator 25.4.1, SVG Export Plug-In . SVG Version: 6.00 Build 0)  -->
<svg version="1.1" id="Layer_1" xmlns="http://www.w3.org/2000/svg" xmlns:xlink="http://www.w3.org/1999/xlink" x="0px" y="0px"
	 viewBox="0 0 144 144" style="enable-background:new 0 0 144 144;" xml:space="preserve">
<style type="text/css">
	.st0{fill:none;}
	.st1{fill:#6B7D1F;stroke:#6B7D1F;stroke-width:0.388;stroke-linecap:round;stroke-linejoin:round;stroke-miterlimit:10;}
	.st2{fill:none;stroke:#313232;stroke-width:0.388;stroke-linecap:round;stroke-linejoin:round;stroke-miterlimit:10;}
	.st3{fill:#FFFFFF;stroke:#313232;stroke-width:0.388;stroke-linecap:round;stroke-linejoin:round;stroke-miterlimit:10;}
	.st4{fill:#1F3B7E;stroke:#F7B83E;stroke-width:0.388;stroke-linecap:round;stroke-linejoin:round;stroke-miterlimit:10;}
	.st5{fill:#20847C;stroke:#313232;stroke-width:0.388;stroke-linecap:round;stroke-linejoin:round;stroke-miterlimit:10;}
</style>
<rect x="0" class="st0" width="144" height="144"/>
<g>
	<g>
		<path class="st1" d="M79.1,71.1c-2.8-5.4-2.6-11.9-1.9-18c0.2-2,0.5-4.1,0.3-6.1c-0.3-2.7-1.6-5.2-1.4-7.9
			c0.1-1.9,0.9-3.6,1.2-5.5c0.4-2.1,0.2-4.4-0.6-6.4c3.3,3.9,5.7,8.9,6.2,14c0.3,2.7,0,5.6,1.1,8c-0.1-3.4,0.2-6.7,1.1-9.9
			c0.9-3.3,2.4-6.4,4.7-8.8c0.7-0.7,1.5-1.4,2.1-2.2c1.5-1.8,2.1-4.2,2.9-6.4s2-4.5,4.1-5.6c-1.3,3.5,1.3,7.7,0.6,11.3
			c-0.5,2.7-2.5,4.9-3.4,7.5c-1.3,3.8,0.2,8.3-1.5,12c0.8-1.1,1.9-2.2,2.9-3.1c2.3-2,4.6-4.1,6-6.8c0.9-1.7,1.4-3.6,2.6-5.1
			c1.2-1.4,2.9-2.2,4.5-3.1c1.6-0.9,3.2-2,3.9-3.7c1.5,3.2,0.7,7.8-1.4,10.6c-2,2.6-5.4,4.2-6.5,7.3c-0.6,1.7-0.4,3.5-0.8,5.3
			c-0.7,3.4-3.6,5.8-6.2,8c-2.6,2.2-5.3,4.8-5.9,8.2c1.9-2.3,3.9-4.8,6.7-5.9c1.7-0.6,3.7-0.8,4.9-2.1c0.7-0.8,1-1.8,1.5-2.7
			c1.3-2.9,3.7-5.2,6.5-6.6c1.3-0.6,2.6-1,3.7-1.9c1.6-1.4,2.1-3.7,3.3-5.5c0.8-1.1,1.9-2,3.2-2.5c-0.4,2.3,0.3,4.8,0.1,7.2
			c-0.1,1.7-0.8,3.4-1.9,4.8c-2.4,3.1-6.8,4.5-8.6,8c-0.7,1.3-0.9,2.8-1.5,4.1c-0.6,1.4-1.7,2.7-3.1,2.8c1.9,0.1,3.9,0.1,5.6-0.6
			c1.5-0.6,2.6-1.8,3.9-2.7c1.2-1,2.7-1.9,4.3-1.9c-0.2,1.4-1,3-1.9,4.1c-0.9,1.2-2,2.1-3.2,3c-1.4,1-2.9,2-4.6,2.6
			c-2,0.7-4.1,0.8-6.1,1.4c-2,0.5-4.1,1.6-5,3.5"/>
		<path class="st2" d="M83.8,48.5c1.4,6-4,12.1-2.7,18.1"/>
		<path class="st2" d="M87.4,43.1c0.7,3.5,1.4,7.2,0,10.4c-0.6,1.3-1.4,2.5-1.8,3.9c-0.8,2.7,0.3,5.5,1.4,8.1"/>
		<path class="st2" d="M95.4,45.2c-1.3,5.7-6,10.4-6.4,16.2"/>
		<path class="st2" d="M94.9,63.2c-1.2,1.6-2.2,3.4-2.7,5.3"/>
		<path class="st2" d="M95.4,68.7c1.6-3.7,4.4-6.8,7.9-8.7"/>
		<path class="st2" d="M111,56c1-1.6,2.3-3,3.8-4"/>
		<path class="st2" d="M100.8,70c0.8-1.9,2.3-3.5,4.1-4.6c1.8-1,4-1.4,6-1.1"/>
	</g>
	<path class="st1" d="M45.6,56c-0.5-3.3-1.3-6.5-2.6-9.5c-1.4-3-3.4-5.8-6.1-7.7c-3.1-2.2-7.1-2.9-10.9-2.2c4.2,5.7,12.2,8.1,16,14
		c-1.6-2.2-4.2-3.7-6.9-4.1c-2.7-0.5-5.5,0-8.1,0.9c-3,1-5.9,2.9-7.1,5.8c2.5,0.9,5.1,1.1,7.8,0.9s5.3-0.8,7.9-1.4
		c-4.4,1.5-9,4.3-11.2,8.5c4.2-0.6,8.3-2.4,11.5-5.1c-4.3,3.4-6.7,9.2-6,14.7c2.7-3,5.1-6.2,7.1-9.7c-2.1,3.9-3.2,8.6-2.8,12.9
		c4.2-3.7,6.5-9,8.9-14.1C43.7,58.4,44.5,56.9,45.6,56z"/>
	<path class="st3" d="M45.2,54.9c0.4,1.1,0.9,2.5,1.4,3.4c0.1,0.2,0.2,0.4,0.4,0.5c0.3,0.2,0.8,0.1,1.2,0.1c1.5-0.4,3-0.9,4.4-1.6
		c0.2-0.1,0.5-0.3,0.6-0.5c0.1-0.3,0.1-0.6,0-0.9c-0.5-1.9-1.1-3.8-1.8-5.7l2.5-0.8c0.4,1,0.7,1.9,1,2.9c0.3,0.9,0.6,1.7,0.8,2.6
		c0.2,0.8,0.3,1.6,0,2.4c-0.3,0.9-1.3,1.5-2.1,2l4.9,11l-3,0.7c-1.3-3.6-2.6-7.2-3.9-10.9c-1.6,0.4-3.2,1.1-4.9,1.2
		c-0.4,0-0.8,0-1.2-0.2c-0.6-0.3-0.9-0.9-1.2-1.5c-0.3-0.8-1-2.7-1.3-3.5L45.2,54.9z"/>
	<path class="st1" d="M49,48.8c-0.4-0.4-0.5-1-0.6-1.5c-0.4-2.6-0.1-5.3,0.6-7.9c0.9-3.3,2.5-6.5,4.9-8.8c2.5-2.3,5.9-3.8,9.3-3.3
		c-3.4,6.9-7.6,13.2-12.1,19.5c0.4-0.7,1.1-1.4,1.7-1.9c2.9-2.5,6.5-4.3,10.3-5.2c2.9-0.6,5.9-0.8,8.6,0.4c-0.9,1.2-2.5,2-3.9,2.7
		c-3.2,1.5-6.7,2.5-10.2,3.1c1-0.4,2.1-0.3,3.2-0.4c3-0.1,6,0.1,8.8,1.2c2.8,1.1,5.3,3.1,6.4,5.8c-3.6-0.2-7.2-0.4-10.7-1.3
		c3.2,1.9,5.5,5,7,8.3c-3.1-1-6.3-1.9-9.3-3.4c0.9,1.4,1.1,3.4,1.1,5c0,0.8-0.1,1.7-0.5,2.4c-0.8-0.8-1.6-1.9-2.1-2.9
		c-0.9-1.7-1.9-3.4-3.2-4.8C55.7,52.9,51.9,51.9,49,48.8z"/>
	<path class="st2" d="M55.4,53.3c2.6,1.3,5.1,2.2,7.9,3"/>
	<path class="st2" d="M66.5,51.4c-0.7,0-1.4,0-2.2-0.1c-0.9,0-1.8,0-2.7-0.1c-0.8-0.1-1.7-0.2-2.4-0.7c-0.3-0.2-0.8-0.7-0.6-1.1
		c0.2-0.6,1-0.5,1.5-0.4c2.2,0.5,4.2,1.4,6.1,2.7"/>
	<path class="st2" d="M56.8,46.4c1.2-0.7,3.9-1.2,5.4-1.1"/>
	<path class="st2" d="M35.1,56.7c1.8-1.7,4.5-2.3,6.9-1.4"/>
	<path class="st2" d="M36.6,61.5c0.7-1.1,1.6-2.2,2.4-3.3"/>
	<path class="st2" d="M34.4,52.9c1.6-0.6,3.4-0.7,5.1-0.3"/>
	<path class="st3" d="M52.8,95.4c-3.9-7.9-7.4-16.7-10.3-25c9.7-2.9,21-5.4,31-6.6c1.5,8.3,2.3,16.5,3.9,24.6"/>
	<g>
		<defs>
			<path id="SVGID_1_" d="M101.4,91.2c2-5.8,3.7-11.7,5.7-17.5c-11.5-2.9-23.3-4.3-35.2-4.1c0.6,5.4,1,10.6,1.3,16"/>
		</defs>
		<use xlink:href="#SVGID_1_"  style="overflow:visible;fill:#A4CCC6;"/>
		<clipPath id="SVGID_00000129164067030746065710000016543887110989302155_">
			<use xlink:href="#SVGID_1_"  style="overflow:visible;"/>
		</clipPath>
	</g>
	<g>
		<defs>
			<polygon id="SVGID_00000145766424405323264710000001418365758107812531_" points="39.8,127.7 114.9,127.7 114,78.4 61.4,78.4 
				39.8,83.9 			"/>
		</defs>
		<use xlink:href="#SVGID_00000145766424405323264710000001418365758107812531_"  style="overflow:visible;fill:#E1EDF5;"/>
		<clipPath id="SVGID_00000119096003308125719940000005448996656272830891_">
			<use xlink:href="#SVGID_00000145766424405323264710000001418365758107812531_"  style="overflow:visible;"/>
		</clipPath>
	</g>
	<line class="st2" x1="61.4" y1="78.4" x2="62.1" y2="127.7"/>
	<line class="st2" x1="89.5" y1="78.4" x2="90.2" y2="127.7"/>
	<path class="st2" d="M114.4,102.1c0,0.1-52.7,0.4-52.7,0.4l-22,3"/>
	<path class="st4" d="M85.2,101.2c-1.8-0.3-3.2-1.9-3.4-3.7c-0.1-1,0.4-2.2,1.4-2.5c0.6-0.1,1.2,0.1,1.7,0.4
		c1.1,0.7,1.9,1.8,2.1,3.1c0.1,0.3,0,0.7-0.3,0.8c-0.1,0-0.3,0-0.4-0.1c-0.7-0.3-0.9-1.1-1.1-1.8c-0.4-1.3-0.6-2.7-0.2-4
		s1.8-2.3,3.1-2c0.9,0.2,1.6,1.1,2.1,1.9c0.7,1.2,1.3,2.7,1.1,4.1c-0.1,0.6-0.4,1.2-1,1.2c-0.3,0-0.6-0.2-0.8-0.5s-0.2-0.6-0.2-0.9
		c0.1-1,0.6-1.9,1.3-2.6c0.5-0.5,1.1-0.9,1.8-1.1c0.7-0.3,1.4-0.5,2.2-0.3c1.4,0.3,2.3,1.6,2.6,2.9c0.3,1.1,0.1,2.3-0.5,3.3
		c-0.4,0.7-1.1,1.4-1.9,1.6c-0.6,0.2-1.5-0.1-1.6-0.7c-0.1-0.4,0.3-0.8,0.7-1c0.7-0.4,1.6-0.2,2.4,0.2c1.4,0.8,2.3,2.3,2.2,3.9
		c0,0.7-0.3,1.5-0.8,2c-0.7,0.7-1.7,1-2.7,1c-0.8,0-1.7-0.2-2.4-0.7c-0.7-0.5-1.2-1.2-1.4-2c-0.1-0.4,0-0.8,0.2-1.1
		c0.3-0.3,0.9-0.3,1.3-0.1c0.4,0.3,0.6,0.7,0.8,1.1c0.6,1.5,0.6,3.2,0.1,4.7c-0.4,1.4-1.4,3.4-3,3.6c0,0-0.1,0-0.1,0
		c-2,0.2-3.2-2.4-3.5-4c-0.1-0.6-0.2-1.3,0.1-1.9c0.2-0.4,0.5-0.7,0.9-0.7c0.4,0,0.8,0.4,0.9,0.8s0,0.8-0.2,1.2
		c-1,2-3.7,3.1-5.6,1.6c-0.9-0.7-1.3-1.8-1.3-2.9c0-1,0.4-2,1-2.8C83.7,102.5,84.5,101.9,85.2,101.2z"/>
	<path class="st5" d="M85.2,101.2c-1.8-0.3-3.2-1.9-3.4-3.7c-0.1-1,0.4-2.2,1.4-2.5c0.6-0.1,1.2,0.1,1.7,0.4
		c1.1,0.7,1.9,1.8,2.1,3.1c0.1,0.3,0,0.7-0.3,0.8c-0.1,0-0.3,0-0.4-0.1c-0.7-0.3-0.9-1.1-1.1-1.8c-0.4-1.3-0.6-2.7-0.2-4
		s1.8-2.3,3.1-2c0.9,0.2,1.6,1.1,2.1,1.9c0.7,1.2,1.3,2.7,1.1,4.1c-0.1,0.6-0.4,1.2-1,1.2c-0.3,0-0.6-0.2-0.8-0.5s-0.2-0.6-0.2-0.9
		c0.1-1,0.6-1.9,1.3-2.6c0.5-0.5,1.1-0.9,1.8-1.1c0.7-0.3,1.4-0.5,2.2-0.3c1.4,0.3,2.3,1.6,2.6,2.9c0.3,1.1,0.1,2.3-0.5,3.3
		c-0.4,0.7-1.1,1.4-1.9,1.6c-0.6,0.2-1.5-0.1-1.6-0.7c-0.1-0.4,0.3-0.8,0.7-1c0.7-0.4,1.6-0.2,2.4,0.2c1.4,0.8,2.3,2.3,2.2,3.9
		c0,0.7-0.3,1.5-0.8,2c-0.7,0.7-1.7,1-2.7,1c-0.8,0-1.7-0.2-2.4-0.7c-0.7-0.5-1.2-1.2-1.4-2c-0.1-0.4,0-0.8,0.2-1.1
		c0.3-0.3,0.9-0.3,1.3-0.1c0.4,0.3,0.6,0.7,0.8,1.1c0.6,1.5,0.6,3.2,0.1,4.7c-0.4,1.4-1.4,3.4-3,3.6c0,0-0.1,0-0.1,0
		c-2,0.2-3.2-2.4-3.5-4c-0.1-0.6-0.2-1.3,0.1-1.9c0.2-0.4,0.5-0.7,0.9-0.7c0.4,0,0.8,0.4,0.9,0.8s0,0.8-0.2,1.2
		c-1,2-3.7,3.1-5.6,1.6c-0.9-0.7-1.3-1.8-1.3-2.9c0-1,0.4-2,1-2.8C83.7,102.5,84.5,101.9,85.2,101.2z"/>
</g>
</svg>
