<?xml version="1.0" encoding="utf-8"?>
<!-- Generator: Adobe Illustrator 25.4.1, SVG Export Plug-In . SVG Version: 6.00 Build 0)  -->
<svg version="1.1" id="Layer_1" xmlns="http://www.w3.org/2000/svg" xmlns:xlink="http://www.w3.org/1999/xlink" x="0px" y="0px"
	 viewBox="0 0 144 144" style="enable-background:new 0 0 144 144;" xml:space="preserve">
<style type="text/css">
	.st0{fill:none;}
	.st1{fill:#FFFFFF;stroke:#313232;stroke-width:0.388;stroke-linecap:round;stroke-linejoin:round;stroke-miterlimit:10;}
	.st2{fill:none;stroke:#313232;stroke-width:0.388;stroke-linecap:round;stroke-linejoin:round;stroke-miterlimit:10;}
	.st3{fill:#313232;stroke:#313232;stroke-width:0.388;stroke-linecap:round;stroke-linejoin:round;stroke-miterlimit:10;}
	.st4{fill:#B29784;stroke:#313232;stroke-width:0.388;stroke-linecap:round;stroke-linejoin:round;stroke-miterlimit:10;}
	.st5{fill:none;stroke:#313232;stroke-width:0.3879;stroke-miterlimit:10;}
	.st6{fill:#6B7D1F;}
	.st7{fill:none;stroke:#313232;stroke-width:0.3879;stroke-linecap:round;stroke-miterlimit:10;}
	.st8{fill:#E1EDF5;stroke:#E1EDF5;stroke-width:0.388;stroke-linecap:round;stroke-linejoin:round;stroke-miterlimit:10;}
	.st9{fill:#685649;stroke:#685649;stroke-width:0.388;stroke-linecap:round;stroke-linejoin:round;stroke-miterlimit:10;}
</style>
<rect x="0" class="st0" width="144" height="144"/>
<g>
	<path class="st1" d="M64.5,115.1c-0.1,0.8-0.3,1.6-0.7,2.3c-0.9,1.6-2.6,2.6-4.3,3.5c-0.2,0.1-0.5,0.2-0.6,0.4
		c-0.1,0.2-0.2,0.5,0,0.7c0.2,0.2,0.5,0.2,0.8,0.1c2.8-0.5,5.3-1.5,7.4-3.4c-0.2,1.1-0.4,2.3-0.5,3.4c1.8,0,3.5,0.1,5.3,0
		c-0.1-2.6-0.4-5.3-0.6-7.9C68.9,114.5,66.7,114.8,64.5,115.1z"/>
	<g>
		<path class="st1" d="M110.7,108.2c-0.2-0.1-0.5-0.1-0.7-0.1c-1.8,0-3.7-0.1-5.2-1.1c-0.9-0.6-1.6-1.5-2.1-2.4
			c-1.9,0.9-3.8,1.7-5.8,2.5c1,2.5,2.1,5.1,3.2,7.6c1.6-0.8,2.9-1.6,4.5-2.4c-0.6-0.9-1.3-1.8-1.9-2.6c2.6,0.7,5.2,0.5,7.8-0.4
			c0.2-0.1,0.5-0.2,0.6-0.5C111.1,108.6,111,108.4,110.7,108.2z"/>
		<path class="st2" d="M54.8,67c-2.2,1.9-4.3,3.9-6.5,5.8c-1.1,1-2.2,2-3.6,2.2c-2.5,0.3-4.6-2-5.4-4.4c-0.9-3.1-0.4-6.5,1-9.4
			s3.5-5.4,5.8-7.6C53,47,61.7,42.1,71,39.7c4.8-1.2,9.9-1.8,14.6-0.4c4.1,1.2,7.6,3.9,10.1,7.3s4,7.5,4.4,11.8
			c0.4,3.8-0.2,7.9-2.1,11.2c2.1,8.4,5.4,16.4,9.7,23.8c1.3,2.2-1.4,4.8-3.4,6.4c-2.5,2.1-5.3,3.8-8.2,5.3
			c-9.4,4.8-19.8,6.5-30.2,7.8c-4.4,0.5-9,0.6-13.3-0.5c-0.9-0.2-1.9-0.6-2.4-1.4c-0.5-0.7-0.4-1.7-0.4-2.6c0.2-4.2,0.6-8.5,1-12.7
			c0.4-3.8,1-7.5,1.5-11.4c0.4-2.9,0.8-5.8,1.2-8.7c0.2-1.5,0.4-2.9,0.6-4.4c0.1-0.7,0.2-1.5,0.3-2.2c0-0.4,0.1-0.7,0.1-1.1
			c0-0.2,0.1-0.4,0.1-0.6C54.7,67.4,54.7,67.1,54.8,67z"/>
		<path class="st3" d="M71.1,29.7c0.1,0,0.3,0.1,0.4,0.1c0.7,0.2,1.3,0.4,2,0.3c0.3,0,0.6-0.1,0.9-0.2c0.5-0.3,0.7-1,0.4-1.5
			c-0.3-0.5-0.9-0.8-1.4-0.5c0.6-0.1,1.2-0.5,1.5-1c0.3-0.6,0.2-1.3-0.4-1.7c-0.5-0.3-1.2-0.2-1.6,0.2c0.2-0.2,0.3-0.3,0.5-0.5
			c0.2-0.3,0.3-0.6,0.3-0.9c0.1-0.7-0.5-1.4-1.2-1.5c-0.7-0.1-1.4,0.4-1.5,1c0-0.4-0.1-0.7-0.4-1.1c-0.2-0.3-0.6-0.5-0.9-0.6
			s-0.8,0.1-1,0.4c-0.1,0.1-0.1,0.3-0.2,0.5c-0.1,0.6,0.1,1.2,0.4,1.6c-0.3-0.3-0.7-0.5-1.2-0.5c-0.4,0-0.9,0.2-1.1,0.6
			c-0.1,0.1-0.1,0.3-0.1,0.5c-0.1,0.5,0.1,1.1,0.5,1.5c0.4,0.4,0.9,0.6,1.5,0.5c-0.5,0-1.1,0-1.4,0.4c-0.2,0.3-0.2,0.6-0.2,0.9
			c0.1,0.6,0.5,1.2,1.1,1.5c0.5,0.3,1,0.3,1.6,0.1C70,29.6,70.6,29.6,71.1,29.7z"/>
		<path class="st4" d="M66.6,34c-0.1-0.2-0.2-0.4-0.4-0.5c-0.3-0.2-0.6-0.3-1-0.2c-0.1,0-0.2,0.1-0.3,0.2c-0.3,0.2-0.4,0.6-0.4,0.9
			c0,0.3,0.2,0.7,0.4,1c0.2,0.2,0.4,0.5,0.6,0.6c0.3,0.1,0.6,0.1,0.8-0.1c0.1-0.1,0.2-0.3,0.3-0.5c0.1-0.3,0.1-0.7,0.1-1
			C66.6,34.2,66.6,34.1,66.6,34z"/>
		<path class="st4" d="M75.4,32.4c0.4-0.1,0.9,0.1,1.2,0.5c0.1,0.1,0.1,0.3,0.2,0.4c0.1,0.5,0,1-0.3,1.4c-0.3,0.4-0.8,0.6-1.3,0.6
			c-0.2,0-0.3-0.1-0.5-0.2c-0.2-0.2-0.3-0.5-0.4-0.8C74.3,33.6,74.6,32.5,75.4,32.4z"/>
		<g>
			<g>
				<line class="st5" x1="49.4" y1="54.9" x2="48.1" y2="51.9"/>
				<path class="st5" d="M53.3,51.3l1.7,3.3c0.3,0.6,0,1.4-0.6,1.7L52,57.2c-0.8,0.3-1.7-0.1-2-0.9l-0.1-0.2"/>
				<line class="st5" x1="53.1" y1="54.9" x2="51.4" y2="51.2"/>
				<path class="st6" d="M36.7,23.4c0,0,5.8,6,10,6.7c4.2,0.7-2.2,1-2.2,1s17.3,4.6,11.1,4.2c-6.2-0.4-2.8,2.2-2.8,2.2
					s14.8,4,9.4,4.7s-12.1,0.9-7.6,2.6c4.5,1.8,21.3,2.7,12.4,3.8c-8.9,1-20.7,3-28.5,12.7c-1.1,1.4-0.6-7.8,3.9-12.9
					c0,0-3-0.2-8.6,3.7c-1.5,1-0.2-5.3,2.6-9.4c5.2-7.5-6.5,3.6-3-1s3-6.8,4.5-8.2c1.5-1.5-6.4,5.4-2.7,0.3
					C35.4,33.8,38,29.2,36.7,23.4z"/>
				<path class="st7" d="M43.1,48.1c0,0-3.5,4.4-4.2,8"/>
				<path class="st7" d="M57.1,38.8c0,0-5.2-2.2-8.8-2"/>
				<path class="st7" d="M38.9,41.8c0,0-1.6,4.1,0,3.5c1.1-0.5,1.9-2.2,2.3-3.2c0.1-0.3,0.5-0.4,0.8-0.2c1,0.8,3,2.3,2.4,0.4
					c-0.8-2.5-0.1-2.8,1.7-2.1s2.7,1.9,0.8-2.2"/>
				<path class="st7" d="M38.1,34.7c0,0-1.4,2.5-0.1,2.7c1,0.2,1.6-1.8,2-2.5c0.1-0.2,0.4-0.3,0.6-0.2c0.8,0.6,1.9,1.5,2,0.3
					c0.1-2.4-0.2-1.5,1.5-1.7c2.2-0.2,3.9-0.7,0.7-1.7"/>
				<path class="st7" d="M46.7,49c0.2,0.1,0.5,0.1,0.8,0.2c1.8,0.7,2.6,1.8,1.1-1.5c-0.1-0.2,0.1-0.4,0.3-0.3
					c0.8,0.4,2.2,0.8,3.7,0.3c1.5-0.5,0.1-1.4-0.9-1.8c-0.2-0.1-0.2-0.4,0.1-0.5l0.5-0.1"/>
			</g>
			<path class="st1" d="M63.3,62.2c-1.4-2.9-3-5.7-4.6-8.6c-4,1.5-8,3-12,4.6c0.9,3.1,1.8,6.3,2.8,9.4c0.2,0.7,0.9,1,1.5,1.3
				c4.5,0.2,9-1.4,12.3-4.5C63.3,63.8,63.6,62.9,63.3,62.2z"/>
		</g>
		<path class="st4" d="M45.4,76.5c-1.6-0.4-2.9-1.7-3.5-3.3c-0.6-1.6-0.4-3.3,0.2-4.9c0.6-1.6,1.6-3,2.7-4.2
			c1.2-1.3,2.6-2.5,4.2-3.2c0.5-0.2,1-0.4,1.6-0.3c0.5,0.1,1.1,0.4,1.2,0.9c0.1,0.4,0,0.8-0.1,1.2c0.5-0.1,1-0.1,1.5,0.2
			c0.4,0.3,0.8,0.8,0.8,1.3c0,0.5-0.3,1-0.5,1.4c0.8-0.2,1.6-0.5,2.3,0.2c0.4,0.4,0.5,1,0.3,1.6c-0.1,0.2-0.2,0.4-0.3,0.5
			c-0.3,0.5-0.7,1-1.1,1.5c-1.3,1.6-2.3,3.3-3.7,4.8S47.4,77,45.4,76.5z"/>
		<path class="st2" d="M51.7,62.7c-0.4,0.1-0.7,0.3-1,0.5c-1.7,1.2-3,2.9-4,4.7"/>
		<path class="st2" d="M53.4,65.6c-1.8,1.3-3.2,3-4.2,5"/>
		<path class="st3" d="M108.2,94.5c-0.3-0.3-0.7-0.5-1-0.7c-1.5-0.8-3.2-1.1-4.9-1.3c-5.3-0.5-10.7,0.4-16,1.4
			c-4.1,0.8-8.3,1.8-12.4,2.8c-7.9,1.9-16,4.4-22,9.9c-0.8,0.7-1.5,1.5-2,2.5c0,0.7,0.1,1.3,0.4,1.9c0.5,0.8,1.5,1.1,2.4,1.4
			c4.3,1.2,8.8,1,13.3,0.5c10.4-1.2,20.8-3,30.2-7.8c2.9-1.5,5.7-3.3,8.2-5.3C106.1,98.5,108.3,96.4,108.2,94.5z"/>
		<path class="st8" d="M57.8,102.4c0.5,4.6,0.5,9.3-0.2,13.9c7.9-1.1,15.7-2.1,23.6-3c-2.7-5.2-4-11.2-5-17.1
			c-0.8,0.2-1.5,0.4-2.3,0.5C68.3,98.1,62.7,99.7,57.8,102.4z"/>
		<path class="st8" d="M106.2,97.6c-0.9-1.6-1.8-3.3-2.6-4.9c-0.5-0.1-0.9-0.1-1.4-0.2c-5.3-0.5-10.7,0.4-16,1.4
			c-1.1,0.2-2.1,0.4-3.2,0.7c1.9,5.5,3.7,11.1,5.3,16.7c0.7-0.5,1.3-0.7,2-1c6.3-2.9,12.8-5.3,19-8.5C108,100.7,107,99.2,106.2,97.6
			z"/>
		<path class="st2" d="M87.1,62.5c0.2-3.7,0.8-7.4,1.7-11"/>
		<path class="st2" d="M88,54.4c-2.7-0.9-6.1-1.4-8.9-1.5c0,1.3-0.1,2.6-0.2,3.9c0,1.6-0.1,3.2,0.6,4.6"/>
		<path class="st4" d="M67.3,30.9c-0.3,0.6-0.5,1.3-0.6,2c-0.2,1.4-0.2,2.8,0,4.2c0.1,0.7,0.3,1.4,0.6,2c0.4,0.8,1.2,1.5,2.1,1.8
			c0.9,0.3,1.9,0.3,2.7,0c0.3-0.1,0.6-0.3,0.8-0.5c0.3-0.2,0.5-0.5,0.7-0.9c1-1.7,1.2-3.7,1-5.7c-0.1-0.8-0.2-1.6-0.4-2.4
			c-0.2-0.6-0.4-1.1-0.8-1.6c-0.5-0.6-1.3-0.8-2.1-0.8C69.8,29.1,68.1,29.5,67.3,30.9z"/>
		<path class="st3" d="M73.4,30c-0.5-0.6-1.3-0.8-2.1-0.8c-1.5,0-3.2,0.4-3.9,1.8c-0.3,0.5-0.4,0.9-0.5,1.5c0.1,0.1,0.2,0.1,0.4,0.1
			c0.4,0,0.8-0.1,1-0.4c0.2-0.3,0.3-0.7,0.1-1c0.4,0.3,0.9,0.2,1.3,0s0.7-0.7,0.8-1.2c0.1,0.4,0.4,0.7,0.8,0.9s0.8,0.2,1.2,0.1
			c-0.1,0.4,0.1,0.8,0.4,1c0.3,0.3,0.7,0.4,1,0.4c0.2,0,0.4-0.1,0.6-0.1c0-0.2-0.1-0.4-0.2-0.6C74.1,31,73.8,30.4,73.4,30z"/>
		<path class="st2" d="M65.4,34.1c0.2,0.3,0.4,0.7,0.6,1.1c0,0,0,0,0,0"/>
		<path class="st2" d="M75.3,34.5c0.1-0.4,0.3-0.9,0.6-1.3"/>
		<path class="st2" d="M70.3,33c-0.2,0.6-0.6,1.1-1.1,1.4c0.5,0,1,0,1.5-0.2"/>
		<path class="st2" d="M68.3,33.4c0,0.1,0.1,0.3,0.2,0.3c0.1,0.1,0.3,0.1,0.4,0c0.2-0.1,0.3-0.2,0.4-0.4"/>
		<path class="st4" d="M62.9,58.3c1.7-0.3,3.5-0.2,5.1,0.3c0.2,0.1,0.4,0.1,0.5,0.2c0,0,0,0,0,0c-0.8-0.5-1.6-1.1-2.4-1.6
			c-0.2-0.2-0.5-0.3-0.7-0.5c-0.2-0.1-0.4-0.2-0.6-0.3c-0.3-0.1-0.6-0.2-0.9-0.1c-0.3,0-0.6,0.2-0.9,0.4
			C62.6,57,62.6,57.8,62.9,58.3C62.9,58.3,62.9,58.3,62.9,58.3z"/>
		<path class="st2" d="M71.6,33c0,0.2,0.1,0.4,0.3,0.4c0.1,0.1,0.3,0.1,0.5,0c0.1-0.1,0.2-0.2,0.3-0.4"/>
		<path class="st9" d="M73.3,34.8c-0.3,0-0.6-0.1-0.9-0.1c-0.3-0.1-0.6-0.2-0.9-0.1c-0.2,0.1-0.3,0.2-0.5,0.3s-0.2,0.3-0.2,0.5
			c-0.2-0.1-0.4-0.3-0.7-0.2c-0.2,0-0.3,0.1-0.5,0.2c-0.1,0.1-0.3,0.2-0.4,0.4c-0.2,0.2-0.3,0.3-0.5,0.5c0.3,0.4,0.5,0.8,0.8,1.1
			c0.3,0.3,0.7,0.6,1.1,0.7s0.9,0.1,1.3-0.2c0.4-0.3,0.7-0.8,0.8-1.3c0.1-0.3,0.2-0.6,0.2-0.9C73.3,35.5,73.3,35.2,73.3,34.8z"/>
		<ellipse class="st1" cx="60.8" cy="59.7" rx="3.1" ry="3.2"/>
		<ellipse class="st2" cx="60.8" cy="59.7" rx="1.5" ry="1.6"/>
		<path class="st2" d="M68.9,36.3c0.6,0.2,1.2,0.3,1.8,0.1c0.2-0.1,0.5-0.1,0.7-0.2c0.1-0.1,0.3-0.2,0.4-0.3
			c0.5-0.3,0.9-0.7,1.3-1.1"/>
		<path class="st2" d="M67.6,40.8c1.6,4.5,3.5,8.9,5.6,13.2"/>
		<path class="st2" d="M73.9,96.7C71,55.4,74.1,46,75.5,38.8"/>
		<path class="st2" d="M98.7,71.9c-3.4-0.6-6.9-0.8-10.4-0.3c0.2,1.6,0.2,3.4,0.5,5c0.2,1.5,0.4,3.1,0.9,4.6
			c0.3,1.1,0.8,2.3,1.8,2.8c0.6,0.3,1.2,0.5,1.9,0.5c1.3,0.1,2.7,0.1,4,0c1-0.1,2.1-0.1,3.1-0.2c0.4,0,0.9-0.1,1.2-0.3
			c0.4-0.2,0.7-0.6,0.9-1C101.1,79.5,99.8,75.7,98.7,71.9z"/>
		<path class="st2" d="M66,78.6c-0.7,0-1.5,0-2.2,0.1c-1.8,0.2-3.5,0.8-5.1,1.6s-3.1,1.8-4.5,2.9c0.1,1.6,0.2,3.4,0.3,5
			c0.1,1.3,0.2,2.6,0.4,3.8c0.1,0.6,0.3,1.2,0.7,1.6c0.5,0.6,1.3,0.8,2.1,0.8s1.5-0.3,2.2-0.5c1.5-0.5,3.1-1,4.6-1.5
			c0.6-0.2,1.2-0.4,1.7-0.8c0.9-0.8,0.9-2.2,0.8-3.4C66.9,85,66.4,81.8,66,78.6z"/>
		<ellipse class="st2" cx="78.5" cy="84.9" rx="1.3" ry="1.4"/>
		<path class="st1" d="M98.1,69.6c-0.3,0.5-0.6,0.9-0.9,1.4c-2.9,3.9-7.8,5.9-12.7,6.1c-4.8,0.2-9.6-1.2-14-3.2
			c0.6-4.4,1.6-8.8,3.1-13c5.7,0.6,11.4,1.4,17.1,2.3"/>
		<path class="st4" d="M73.5,61.2c-1.2,3.4-2,6.9-2.6,10.4c-0.5-0.3-1.1-0.6-1.7-0.9c-0.5-0.3-1-0.6-1.5-0.8
			c-0.6-0.3-1.3-0.5-1.9-0.7s-1.3-0.5-1.8-0.9c-0.5-0.4-0.9-1.1-0.9-1.8c0-0.7,0.4-1.4,1.1-1.6c-0.3-0.4-0.7-0.8-0.8-1.3
			c-0.1-0.5,0-1,0.2-1.4c-0.8,0.1-1.6,0.1-2.3-0.2c-0.7-0.3-1.2-1.1-1.1-1.8c0.1-0.4,0.3-0.8,0.7-1.1c0.3-0.3,0.8-0.4,1.2-0.6
			c1.9-0.6,4-0.5,6,0.1C70,59.2,71.8,60.1,73.5,61.2z"/>
		<path class="st2" d="M64.1,64.9c1.3-0.3,2.8-0.1,4.1,0.4"/>
		<path class="st2" d="M63.6,62.2c0.3-0.5,1.1-0.8,1.8-0.9c0.7-0.1,1.4-0.1,2.1,0.1c0.6,0.1,1.1,0.3,1.7,0.6"/>
		<path class="st2" d="M57.7,67.1c1.4-0.4,2.7-1,3.9-1.7"/>
		<path class="st2" d="M66.1,41.3c-0.7,1.9-1.3,3.8-1.8,5.8c1.6,0.3,3.1,0.5,4.8,0.7c-1,1-2,2.3-2.6,3.6c1,0.9,2.2,1.6,3.4,2.4
			c1.2,0.7,2.4,1.7,3.2,2.8"/>
		<path class="st2" d="M72.9,58.9c1.8-3,4-5.8,5.8-8.7c-0.8-1.4-1.9-2.7-2.9-4c1-0.4,2-0.9,3-1.3c0.5-0.2,1-0.4,1.4-0.7
			c-1.3-1.8-2.6-3.7-3.7-5.6"/>
		<g>
			<path class="st2" d="M80.3,56c0.1-0.5,0.1-0.9,0.2-1.4c0.1,0,0.3,0,0.4,0c0.1,0,0.3,0.1,0.3,0.2c0.1,0.1,0.1,0.2,0,0.3
				c0,0.1-0.1,0.1-0.2,0.1c0,0-0.1,0-0.2,0c-0.2,0-0.3,0-0.5,0"/>
			<path class="st2" d="M81.5,56.1c0.1-0.4,0.3-0.8,0.4-1.2c0-0.1,0.1-0.2,0.2-0.2c0.1,0,0.1,0,0.2,0.1c0,0,0,0.1,0.1,0.2
				c0.1,0.4,0.2,0.8,0.3,1.2"/>
			<path class="st2" d="M83,54.9c0.4,0.1,0.9,0.1,1.3,0.2"/>
			<path class="st2" d="M85.4,56.5c-0.1,0.1-0.2,0.1-0.3,0.1c-0.1,0-0.3-0.1-0.3-0.2c-0.1-0.1-0.1-0.3-0.1-0.5c0-0.2,0-0.3,0.1-0.5
				c0.1-0.1,0.2-0.3,0.4-0.3c0.2,0,0.4,0.1,0.5,0.2"/>
			<path class="st2" d="M86.2,55.4c0,0.5-0.1,0.9-0.1,1.4"/>
			<path class="st2" d="M87.1,55.6c-0.1,0.5-0.1,0.9-0.2,1.3"/>
			<path class="st2" d="M86.1,56.1c0.2,0,0.4,0.1,0.6,0.1c0.1,0,0.1,0,0.1,0"/>
			<path class="st2" d="M83.6,55.1c0,0.4-0.1,0.8-0.1,1.3"/>
			<path class="st2" d="M81.8,55.6c0.2,0,0.5,0,0.7,0.1"/>
		</g>
		<path class="st2" d="M63.5,58.1c2.2-0.6,4.3-1.8,5.6-3.6c0.4-0.6,0.8-1.3,1.1-1.9c0.8-1.9,1-4.1,0.8-6.1"/>
		<path class="st2" d="M65.6,34.7c-0.5,0-1,0.4-1.1,0.9c-0.1,0.4,0.1,0.7,0.2,1.1c0.9,2.2,1.8,4.5,2.5,6.8c0.2,0.7,0.4,1.3,0.8,2
			c0.2,0.4,0.5,0.8,0.9,1c0.5,0.2,1,0.2,1.6,0.1c0.6-0.1,1.3-0.2,1.8-0.6c0.5-0.4,0.9-0.9,1.2-1.5c0.4-0.7,0.6-1.5,0.8-2.2
			c0.3-0.8,0.5-1.6,0.8-2.4c0.5-1.6,0.9-3.2,1.2-4.9c0-0.2,0.1-0.5,0-0.7c-0.1-0.3-0.4-0.5-0.7-0.6"/>
		<path class="st2" d="M49.9,109.1c0.5-1,1.2-1.8,2-2.5c5.9-5.5,14.1-8,22-9.9c4.1-1,8.2-1.9,12.4-2.8c5.3-1.1,10.7-2,16-1.4
			c1.7,0.2,3.4,0.5,4.9,1.3c0.4,0.2,0.7,0.4,1,0.7"/>
	</g>
</g>
</svg>
